<svg width="83" height="83" viewBox="0 0 83 83" fill="none" xmlns="http://www.w3.org/2000/svg">
<g clip-path="url(#clip0_5_1760)">
<path d="M44.3006 43.036C44.3204 43.501 44.4594 43.9408 44.7176 44.3366C44.9393 44.6822 45.5052 44.3523 45.2835 44.0099C45.0882 43.7052 44.979 43.3816 44.9658 43.0266C44.9459 42.6214 44.284 42.6339 44.3006 43.036Z" fill="#46A358"/>
<path d="M52.8093 42.995C52.7762 43.171 52.7398 43.3437 52.7067 43.5197C52.6736 43.6862 52.7663 43.8589 52.945 43.9029C53.1105 43.9438 53.3157 43.8432 53.3488 43.6767C53.3819 43.5008 53.4183 43.328 53.4514 43.1521C53.4845 42.9856 53.3918 42.8128 53.2131 42.7689C53.0476 42.728 52.8424 42.8285 52.8093 42.995Z" fill="#46A358"/>
<path d="M57.3401 43.6203C57.767 43.6109 57.7537 42.9826 57.3268 42.992C56.8999 43.0015 56.9131 43.6298 57.3401 43.6203Z" fill="#46A358"/>
<path d="M32.4823 44.7324C32.9092 44.723 32.896 44.0947 32.469 44.1041C32.0421 44.1135 32.0554 44.7418 32.4823 44.7324Z" fill="#46A358"/>
<path d="M44.5885 4.97382C42.0335 12.1269 40.6402 19.6193 40.488 27.1746C40.4119 30.9726 40.6469 34.7738 41.1929 38.5372C41.4445 40.2713 41.7622 41.9991 42.1461 43.7112C42.4472 45.0495 42.6028 46.5794 43.6486 47.6004C44.0954 48.037 44.7804 47.3553 44.337 46.9218C43.2084 45.8192 43.0926 43.4882 42.8014 42.0463C42.434 40.2242 42.1428 38.3865 41.9276 36.5393C41.5206 33.046 41.3849 29.5275 41.5139 26.0154C41.7754 18.9282 43.1555 11.9196 45.5516 5.20629C45.7567 4.6314 44.7904 4.40207 44.5885 4.97382Z" fill="#46A358"/>
<path d="M48.4408 5.10272C49.7778 12.2496 49.8109 19.5535 50.079 26.7883C50.2047 30.1873 50.4199 33.5958 50.347 36.998C50.2709 40.529 49.5461 43.8496 48.5698 47.2424C48.4011 47.8298 49.3641 48.0591 49.5329 47.4748C50.4496 44.2988 51.1777 41.1636 51.3167 37.8588C51.4723 34.1676 51.2108 30.4575 51.0751 26.7726C50.8038 19.4498 50.7475 12.0705 49.3939 4.8357C49.2814 4.23882 48.3282 4.50899 48.4408 5.10272Z" fill="#46A358"/>
<path d="M55.629 17.3827C56.0824 27.162 56.4928 37.0608 53.9776 46.6391C53.822 47.2297 54.7851 47.4591 54.9407 46.8716C57.4757 37.2116 57.0819 27.2249 56.6219 17.3638C56.5921 16.7575 55.5993 16.7732 55.629 17.3827Z" fill="#46A358"/>
<path d="M52.8226 17.5272C51.416 19.0885 50.4761 20.9043 50.0624 22.9243C49.94 23.518 50.903 23.7536 51.0255 23.1567C51.4061 21.2907 52.2368 19.6257 53.5374 18.1807C53.9511 17.7189 53.2396 17.0654 52.8226 17.5272Z" fill="#46A358"/>
<path d="M62.6055 23.5336C62.5823 30.6145 61.5829 37.6294 59.6236 44.4621C59.4548 45.0495 60.4179 45.2788 60.5867 44.6945C62.5658 37.7833 63.5752 30.6773 63.5984 23.5147C63.5984 22.9084 62.6055 22.9273 62.6055 23.5336Z" fill="#46A358"/>
<path d="M60.7191 21.4257C58.1509 24.2499 56.89 27.7275 55.9832 31.3057C55.8342 31.8963 56.7973 32.1287 56.9462 31.5381C57.8133 28.1296 58.9849 24.7777 61.4372 22.0792C61.8509 21.6205 61.1361 20.964 60.7191 21.4257Z" fill="#46A358"/>
<path d="M36.7549 10.7636C38.5222 14.7156 39.8062 18.8121 40.6005 23.0374C40.713 23.6342 41.6629 23.3609 41.5537 22.7672C40.7594 18.5419 39.472 14.4454 37.708 10.4935C37.4598 9.94373 36.5067 10.2045 36.7549 10.7636Z" fill="#46A358"/>
<path d="M34.9148 11.106C34.3952 17.1031 33.8855 23.1755 34.9379 29.1506C36.04 35.3833 38.7472 41.4651 40.8289 47.4496C41.0275 48.0245 41.9806 47.7575 41.782 47.1795C39.7665 41.3772 37.1619 35.4775 35.997 29.4585C34.8254 23.3986 35.3781 17.1816 35.9076 11.0872C35.9606 10.484 34.9677 10.506 34.9148 11.106Z" fill="#46A358"/>
<path d="M28.5969 25.5946C31.9097 28.5225 34.5938 31.9467 36.6059 35.795C36.8906 36.3384 37.7345 35.8421 37.4532 35.3017C35.4046 31.3843 32.6577 27.8942 29.2853 24.9129C28.8187 24.5014 28.1303 25.1799 28.5969 25.5946Z" fill="#46A358"/>
<path d="M26.3233 26.8041C28.8882 34.0797 32.34 41.0286 36.6258 47.5315C36.9634 48.0467 37.8139 47.5566 37.473 47.0383C33.2302 40.6014 29.8148 33.7342 27.2764 26.5339C27.0745 25.9622 26.1214 26.226 26.3233 26.8041Z" fill="#46A358"/>
<path d="M32.0686 45.6622C30.6058 43.1804 28.4612 41.1165 25.7938 39.8033C25.251 39.5363 24.7314 39.6054 25.7838 39.5049C26.1677 39.4672 26.5649 39.4515 26.9488 39.4578C28.1998 39.4703 29.3316 39.684 30.4072 40.328C31.6582 41.0756 32.7504 42.15 33.869 43.0642C34.3522 43.46 35.0405 42.7815 34.5574 42.3856C33.1409 41.2233 31.7376 39.7719 30.0002 39.0494C29.0305 38.6441 27.9813 38.5248 26.9289 38.5216C26.2604 38.5185 24.8704 38.3991 24.3111 38.9394C23.219 39.9887 25.3106 40.6076 25.9625 40.9751C28.1998 42.2254 29.9604 44.0223 31.2214 46.1648C31.5325 46.6863 32.3797 46.1931 32.0686 45.6622Z" fill="#46A358"/>
<path d="M62.2812 38.0096C63.2509 35.9582 65.5046 35.3142 67.6492 34.8869C67.9636 34.8241 68.0894 34.4283 67.9305 34.1895C66.7656 32.4429 64.6442 32.2638 62.6551 32.4366C62.023 32.49 62.0363 33.4324 62.675 33.379C64.2801 33.2408 66.1169 33.2314 67.0833 34.6827C67.1759 34.4503 67.2719 34.2178 67.3646 33.9853C64.9751 34.4597 62.483 35.2796 61.4141 37.5509C61.1526 38.1007 62.0197 38.5625 62.2812 38.0096Z" fill="#46A358"/>
<path d="M28.4314 24.6834C27.9946 25.23 27.5048 25.9117 26.78 26.1316C26.0651 26.3483 25.3006 26.0373 25.3569 25.2174C25.3999 24.5766 25.9791 24.1085 26.5417 23.8414C27.197 23.5304 28.9941 23.3828 28.5175 24.5766C28.2924 25.1452 29.2555 25.3682 29.4806 24.809C29.9406 23.6561 28.8352 22.6477 27.6636 22.6257C26.4325 22.6037 24.9995 23.3797 24.5361 24.4886C24.1026 25.5159 24.556 26.8007 25.7607 27.0929C27.2334 27.4479 28.3487 26.3389 29.1496 25.3399C29.5302 24.8561 28.8187 24.1996 28.4314 24.6834Z" fill="#46A358"/>
<path d="M36.9965 10.0568C36.3776 10.1667 35.4807 10.55 34.8618 10.2358C34.243 9.91854 34.3555 9.13003 34.7129 8.67452C35.0869 8.20016 35.676 8.02737 36.2717 8.18445C36.7549 8.31325 38.2607 9.51329 37.2116 9.92796C36.6291 10.1573 36.9038 11.0652 37.4962 10.8327C38.7373 10.3426 38.6943 8.97924 37.8967 8.10277C37.0924 7.21688 35.6528 6.88074 34.5772 7.52474C33.6373 8.0902 33.1144 9.32166 33.6241 10.3081C34.3455 11.7092 36.0334 11.1814 37.2811 10.9615C37.9066 10.8484 37.6187 9.94367 36.9965 10.0568Z" fill="#46A358"/>
<path d="M48.7916 4.3083C47.9311 4.51877 46.9283 4.76695 46.0414 4.56275C44.7937 4.28002 44.7473 2.92291 45.6244 2.21922C46.326 1.6569 47.4016 1.59407 48.2521 1.8391C48.7883 1.99304 49.4171 2.32603 49.5627 2.88521C49.7017 3.40984 49.4336 3.92818 48.8776 4.05698C48.2587 4.20149 48.54 5.10623 49.1622 4.96172C50.6416 4.61616 50.9659 2.86636 50.0558 1.83596C49.0299 0.676761 46.9713 0.478848 45.5913 1.11971C44.2939 1.72287 43.503 3.34387 44.3668 4.5816C45.3662 6.01725 47.62 5.56488 49.0729 5.20676C49.6918 5.05911 49.4105 4.15436 48.7916 4.3083Z" fill="#46A358"/>
<path d="M55.8706 13.572C54.4442 13.3301 52.8821 13.7228 52.2302 15.0642C51.7006 16.1511 52.2004 17.5617 53.4315 17.9701C54.6726 18.3816 56.5557 17.8727 57.2441 16.7794C57.9027 15.7271 57.4261 14.3919 56.3869 13.7636C55.8475 13.4369 55.3676 14.2631 55.9037 14.5867C56.5722 14.9888 56.7907 15.903 56.2446 16.4904C55.7581 17.0151 54.7189 17.2381 54.014 17.1187C53.1072 16.9648 52.7564 16.0632 53.2098 15.3187C53.7062 14.505 54.7288 14.3354 55.629 14.4862C56.2545 14.593 56.4994 13.6788 55.8706 13.572Z" fill="#46A358"/>
<path d="M63.5653 18.7807C62.3109 18.7021 60.5735 18.8718 60.2955 20.3294C60.0671 21.5232 61.4968 23.1002 62.5923 23.5243C65.7197 24.7338 66.3883 18.7021 63.691 18.8624C63.0556 18.9001 63.0721 19.8425 63.7109 19.8048C64.5879 19.7514 64.3728 21.7211 64.1742 22.1106C63.7076 23.0374 62.814 22.6981 62.2249 22.1075C61.7715 21.652 60.9574 20.8446 61.4273 20.1912C61.8807 19.5629 62.8934 19.6823 63.5851 19.7231C64.2238 19.764 64.1974 18.8215 63.5653 18.7807Z" fill="#46A358"/>
<path d="M45.6376 6.69225C45.5383 7.00954 45.4357 7.32683 45.3364 7.64411C45.214 8.03366 45.856 8.18445 45.9785 7.79805C46.0778 7.48076 46.1804 7.16347 46.2797 6.84618C46.4021 6.45664 45.7601 6.30585 45.6376 6.69225Z" fill="#46A358"/>
<path d="M47.0508 6.74584C47.0541 6.95632 47.0607 7.16365 47.064 7.37413C47.0739 7.77938 47.7358 7.76682 47.7259 7.36157C47.7226 7.15109 47.716 6.94375 47.7127 6.73327C47.7061 6.32802 47.0441 6.34059 47.0508 6.74584Z" fill="#46A358"/>
<path d="M46.5808 10.5249C47.0077 10.5155 46.9945 9.88716 46.5676 9.89659C46.144 9.90287 46.1572 10.5312 46.5808 10.5249Z" fill="#46A358"/>
<path d="M44.605 10.8766C44.5753 11.2253 44.5455 11.5772 44.519 11.9259C44.5058 12.0955 44.6911 12.2369 44.8566 12.2337C45.0518 12.2306 45.1677 12.083 45.1809 11.9133C45.2107 11.5646 45.2405 11.2128 45.2669 10.8641C45.2802 10.6944 45.0948 10.5531 44.9294 10.5562C44.7341 10.5593 44.6183 10.707 44.605 10.8766Z" fill="#46A358"/>
<path d="M46.1704 11.8945C46.1804 12.2778 46.187 12.661 46.1969 13.0474C46.2068 13.4527 46.8687 13.4401 46.8588 13.0349C46.8489 12.6516 46.8423 12.2684 46.8323 11.882C46.8224 11.4767 46.1605 11.4893 46.1704 11.8945Z" fill="#46A358"/>
<path d="M47.342 9.67033C47.385 9.98448 47.4281 10.2986 47.4711 10.6096C47.4942 10.7793 47.6167 10.9206 47.8087 10.9175C47.9708 10.9144 48.1562 10.7667 48.133 10.5971C48.09 10.2829 48.0469 9.96877 48.0039 9.65777C47.9807 9.48813 47.8583 9.34676 47.6663 9.3499C47.5009 9.35305 47.3155 9.5007 47.342 9.67033Z" fill="#46A358"/>
<path d="M47.438 14.3826C47.4413 14.5585 47.4446 14.7313 47.4479 14.9072C47.4578 15.3124 48.1197 15.2999 48.1098 14.8946C48.1065 14.7187 48.1032 14.5459 48.0999 14.37C48.09 13.9647 47.4281 13.9773 47.438 14.3826Z" fill="#46A358"/>
<path d="M46.005 9.27772C45.9719 9.58873 46.0447 9.88089 46.1804 10.1636C46.2532 10.3176 46.4981 10.349 46.6371 10.2673C46.8059 10.1699 46.8191 9.99084 46.7463 9.83376C46.6603 9.6547 46.647 9.45679 46.6669 9.26202C46.6834 9.09238 46.4915 8.95101 46.3293 8.95415C46.134 8.96044 46.0215 9.10809 46.005 9.27772Z" fill="#46A358"/>
<path d="M43.6949 14.2664C43.6287 14.6182 43.5625 14.9669 43.4963 15.3188C43.4202 15.7146 44.0623 15.8717 44.1384 15.4727C44.2046 15.1209 44.2708 14.7722 44.337 14.4203C44.4098 14.0245 43.771 13.8674 43.6949 14.2664Z" fill="#46A358"/>
<path d="M45.5185 16.4339C45.4887 16.679 45.4556 16.924 45.4258 17.169C45.4059 17.3387 45.4754 17.5052 45.6641 17.5523C45.8196 17.59 46.0447 17.4958 46.0678 17.3261C46.0976 17.0811 46.1307 16.8361 46.1605 16.591C46.1804 16.4214 46.1109 16.2549 45.9222 16.2078C45.7667 16.1669 45.5416 16.2643 45.5185 16.4339Z" fill="#46A358"/>
<path d="M44.936 20.9044C44.9889 21.1714 44.9558 21.4321 44.8665 21.6866C44.7308 22.0698 45.3728 22.2238 45.5085 21.8405C45.6376 21.4761 45.6475 21.1023 45.5714 20.7253C45.5383 20.5588 45.3199 20.4677 45.161 20.5148C44.9724 20.5682 44.8996 20.7379 44.936 20.9044Z" fill="#46A358"/>
<path d="M42.9139 18.3692C42.8841 18.6142 42.851 18.8593 42.8212 19.1043C42.8014 19.2739 42.8709 19.4404 43.0595 19.4876C43.215 19.5253 43.4401 19.431 43.4633 19.2614C43.493 19.0163 43.5261 18.7713 43.5559 18.5263C43.5758 18.3566 43.5063 18.1901 43.3176 18.143C43.1588 18.1053 42.9337 18.1996 42.9139 18.3692Z" fill="#46A358"/>
<path d="M47.4214 18.8686C47.5009 19.2173 47.577 19.566 47.6564 19.9116C47.7458 20.3074 48.3812 20.1252 48.2918 19.7325C48.2124 19.3838 48.1363 19.0351 48.0569 18.6896C47.9675 18.2937 47.3354 18.4728 47.4214 18.8686Z" fill="#46A358"/>
<path d="M47.855 23.4866C47.8616 23.8353 47.8715 24.184 47.8781 24.5327C47.8881 24.9379 48.55 24.9254 48.5401 24.5201C48.5334 24.1714 48.5235 23.8227 48.5169 23.474C48.5103 23.0687 47.8484 23.0813 47.855 23.4866Z" fill="#46A358"/>
<path d="M47.0739 28.092C47.117 28.337 47.1567 28.5789 47.1997 28.8239C47.2295 28.9904 47.4545 29.0784 47.6101 29.0344C47.7987 28.981 47.8616 28.8114 47.8318 28.6449C47.7888 28.3998 47.7491 28.1579 47.7061 27.9129C47.6763 27.7464 47.4512 27.6584 47.2957 27.7024C47.107 27.7527 47.0441 27.9223 47.0739 28.092Z" fill="#46A358"/>
<path d="M44.3734 25.7549C44.3767 25.9654 44.3833 26.1727 44.3866 26.3832C44.3965 26.7884 45.0584 26.7759 45.0485 26.3706C45.0452 26.1601 45.0386 25.9528 45.0353 25.7423C45.0287 25.3371 44.3668 25.3496 44.3734 25.7549Z" fill="#46A358"/>
<path d="M42.5498 23.0655C42.573 23.3263 42.5465 23.5713 42.4671 23.8226C42.3446 24.2122 42.9867 24.363 43.1091 23.9766C43.2051 23.6781 43.2382 23.364 43.2117 23.053C43.1753 22.654 42.5134 22.6634 42.5498 23.0655Z" fill="#46A358"/>
<path d="M43.3805 30.2974C43.3474 30.5425 43.3176 30.7875 43.2845 31.0325C43.2614 31.2022 43.3342 31.3687 43.5228 31.4158C43.6784 31.4535 43.9034 31.3592 43.9266 31.1896C43.9597 30.9446 43.9895 30.6995 44.0226 30.4545C44.0457 30.2849 43.9729 30.1184 43.7843 30.0712C43.6254 30.0335 43.4037 30.1278 43.3805 30.2974Z" fill="#46A358"/>
<path d="M46.7562 33.8568C46.7992 34.0641 46.839 34.2746 46.882 34.4819C46.9151 34.6484 47.1335 34.7395 47.2924 34.6924C47.4777 34.639 47.5472 34.4693 47.5141 34.3028C47.4711 34.0955 47.4314 33.885 47.3883 33.6777C47.3552 33.5112 47.1368 33.4201 46.978 33.4672C46.7926 33.5206 46.7231 33.6903 46.7562 33.8568Z" fill="#46A358"/>
<path d="M44.9658 37.4536C45.0452 37.8023 45.1279 38.1479 45.2074 38.4966C45.3 38.8924 45.9322 38.7102 45.8428 38.3175C45.7634 37.9688 45.6806 37.6232 45.6012 37.2745C45.5085 36.8787 44.8731 37.0578 44.9658 37.4536Z" fill="#46A358"/>
<path d="M48.6592 39.7279C48.5897 39.9729 48.5235 40.2179 48.454 40.4661C48.3448 40.8588 48.9868 41.0127 49.0961 40.62C49.1656 40.375 49.2317 40.13 49.3012 39.8818C49.4105 39.4891 48.7684 39.3352 48.6592 39.7279Z" fill="#46A358"/>
<path d="M48.1661 12.4633C48.2091 12.7083 48.2521 12.9502 48.2952 13.1953C48.3249 13.3618 48.55 13.4497 48.7055 13.4057C48.8942 13.3523 48.9571 13.1827 48.9273 13.0162C48.8842 12.7712 48.8412 12.5293 48.7982 12.2842C48.7684 12.1177 48.5434 12.0298 48.3878 12.0738C48.2025 12.1272 48.1363 12.2968 48.1661 12.4633Z" fill="#46A358"/>
<path d="M48.2455 16.7763C48.2918 17.0904 48.3382 17.4014 48.3845 17.7156C48.411 17.8821 48.5268 18.0266 48.7221 18.0235C48.8842 18.0203 49.0696 17.8727 49.0464 17.703C49.0001 17.3889 48.9537 17.0779 48.9074 16.7637C48.8809 16.5972 48.7651 16.4527 48.5698 16.4559C48.4077 16.459 48.219 16.6098 48.2455 16.7763Z" fill="#46A358"/>
<path d="M53.2098 20.2635C53.1204 20.7567 53.0278 21.2467 52.9384 21.7399C52.8656 22.1358 53.5076 22.2928 53.5804 21.8939C53.6698 21.4007 53.7625 20.9106 53.8518 20.4174C53.9246 20.0216 53.2826 19.8645 53.2098 20.2635Z" fill="#46A358"/>
<path d="M54.4972 19.3777C54.5038 19.6227 54.5071 19.8677 54.5137 20.1096C54.5237 20.5149 55.1856 20.5023 55.1756 20.0971C55.169 19.852 55.1657 19.607 55.1591 19.3651C55.1492 18.9599 54.4906 18.9724 54.4972 19.3777Z" fill="#46A358"/>
<path d="M54.1364 22.7358C54.0736 23.2604 54.014 23.7851 53.9511 24.3097C53.9048 24.7118 54.5667 24.693 54.613 24.2971C54.6759 23.7725 54.7355 23.2479 54.7983 22.7233C54.8447 22.3243 54.1828 22.34 54.1364 22.7358Z" fill="#46A358"/>
<path d="M52.4221 23.6561C52.2798 23.9389 52.1408 24.2216 51.9985 24.5012C51.8165 24.8656 52.3956 25.1735 52.5777 24.8059C52.72 24.5232 52.859 24.2404 53.0013 23.9608C53.1833 23.5964 52.6041 23.2886 52.4221 23.6561Z" fill="#46A358"/>
<path d="M51.426 21.9755C51.3399 22.1891 51.2572 22.3996 51.1711 22.6132C51.1082 22.7734 51.2505 22.9556 51.4094 22.9965C51.598 23.0436 51.747 22.9274 51.8132 22.7703C51.8992 22.5567 51.9819 22.3462 52.068 22.1326C52.1309 21.9724 51.9886 21.7902 51.8297 21.7493C51.6411 21.7022 51.4921 21.8153 51.426 21.9755Z" fill="#46A358"/>
<path d="M53.3157 26.1033C53.3024 26.3829 53.2925 26.6625 53.2793 26.9421C53.2627 27.3473 53.9246 27.3316 53.9412 26.9295C53.9544 26.6499 53.9643 26.3704 53.9776 26.0908C53.9941 25.6855 53.3322 25.7012 53.3157 26.1033Z" fill="#46A358"/>
<path d="M54.6726 27.7526C54.6593 28.0134 54.6461 28.2772 54.6329 28.538C54.6229 28.7076 54.8017 28.849 54.9704 28.8458C55.1591 28.8427 55.2848 28.695 55.2948 28.5254C55.308 28.2647 55.3213 28.0008 55.3345 27.74C55.3444 27.5704 55.1657 27.429 54.9969 27.4322C54.8083 27.4353 54.6825 27.583 54.6726 27.7526Z" fill="#46A358"/>
<path d="M54.1497 30.5611C54.1199 30.7873 54.0868 31.0167 54.057 31.2428C54.0339 31.4093 54.11 31.579 54.2953 31.6261C54.4542 31.6638 54.6759 31.5695 54.6991 31.3999C54.7288 31.1737 54.7619 30.9444 54.7917 30.7182C54.8149 30.5517 54.7388 30.3821 54.5534 30.335C54.3946 30.2941 54.1728 30.3915 54.1497 30.5611Z" fill="#46A358"/>
<path d="M51.6808 28.6197C51.6477 28.8114 51.6146 29.0061 51.5815 29.1978C51.5517 29.3643 51.6378 29.5339 51.8198 29.581C51.9819 29.6187 52.1938 29.5213 52.2235 29.3548C52.2566 29.1632 52.2897 28.9684 52.3228 28.7768C52.3526 28.6103 52.2666 28.4407 52.0845 28.3936C51.9224 28.3527 51.7106 28.4501 51.6808 28.6197Z" fill="#46A358"/>
<path d="M52.1574 33.6147C52.1607 33.753 52.164 33.8943 52.1673 34.0325C52.1772 34.4378 52.8391 34.4252 52.8292 34.02C52.8259 33.8818 52.8226 33.7404 52.8193 33.6022C52.8093 33.1969 52.1474 33.2095 52.1574 33.6147Z" fill="#46A358"/>
<path d="M54.2953 35.4587C54.2986 35.597 54.3019 35.7383 54.3052 35.8765C54.3152 36.2818 54.9771 36.2692 54.9671 35.864C54.9638 35.7258 54.9605 35.5844 54.9572 35.4462C54.9473 35.0409 54.2854 35.0535 54.2953 35.4587Z" fill="#46A358"/>
<path d="M52.389 39.2663C52.4155 39.5113 52.389 39.7375 52.3063 39.97C52.25 40.1302 52.3824 40.3124 52.5446 40.3533C52.7299 40.3972 52.8888 40.2873 52.9483 40.1271C53.0476 39.8475 53.084 39.549 53.0509 39.2569C53.0311 39.0873 52.902 38.9459 52.7134 38.949C52.5446 38.949 52.3692 39.0967 52.389 39.2663Z" fill="#46A358"/>
<path d="M53.2065 18.6706C53.1204 18.8308 53.0311 18.991 52.945 19.1481C52.7498 19.5062 53.3256 19.8141 53.5242 19.4528C53.6102 19.2926 53.6996 19.1324 53.7856 18.9753C53.9809 18.6172 53.405 18.3093 53.2065 18.6706Z" fill="#46A358"/>
<path d="M36.04 12.6989C36.0996 13.0287 36.1625 13.3617 36.222 13.6916C36.2518 13.8581 36.4769 13.9461 36.6324 13.9021C36.8211 13.8487 36.8873 13.679 36.8542 13.5125C36.7946 13.1827 36.7317 12.8497 36.6721 12.5198C36.6423 12.3533 36.4173 12.2654 36.2618 12.3094C36.0731 12.3628 36.0069 12.5324 36.04 12.6989Z" fill="#46A358"/>
<path d="M37.0262 14.7753C37.1785 15.1208 37.334 15.4695 37.4863 15.8151C37.5558 15.9722 37.7146 16.079 37.8967 16.0256C38.0522 15.9816 38.1879 15.7931 38.1184 15.636C37.9662 15.2905 37.8106 14.9418 37.6584 14.5962C37.5889 14.4391 37.43 14.3323 37.248 14.3857C37.0924 14.4297 36.9567 14.6182 37.0262 14.7753Z" fill="#46A358"/>
<path d="M36.1228 15.9346C36.0466 16.4184 36.0533 16.8802 36.1426 17.3577C36.2154 17.7535 36.8475 17.5744 36.778 17.1786C36.7118 16.8205 36.7118 16.4498 36.7681 16.0885C36.8244 15.6927 36.1823 15.5356 36.1228 15.9346Z" fill="#46A358"/>
<path d="M37.3804 17.7501C37.4929 18.0454 37.6021 18.3439 37.7146 18.6392C37.8569 19.0193 38.4924 18.8434 38.3501 18.4601C38.2375 18.1648 38.1283 17.8664 38.0158 17.5711C37.8735 17.191 37.2381 17.3669 37.3804 17.7501Z" fill="#46A358"/>
<path d="M35.8414 19.0068C35.8481 19.3555 35.858 19.7042 35.8646 20.0529C35.8745 20.4582 36.5364 20.4456 36.5265 20.0404C36.5199 19.6917 36.51 19.343 36.5033 18.9943C36.4967 18.589 35.8348 18.6016 35.8414 19.0068Z" fill="#46A358"/>
<path d="M37.0825 20.188C37.0891 20.5021 37.0958 20.8163 37.1024 21.1304C37.1123 21.5357 37.7742 21.5231 37.7643 21.1179C37.7577 20.8037 37.751 20.4896 37.7444 20.1754C37.7345 19.7702 37.0726 19.7827 37.0825 20.188Z" fill="#46A358"/>
<path d="M38.9325 20.81C39.0649 21.1744 39.2006 21.5388 39.333 21.9032C39.472 22.2833 40.1074 22.1074 39.9684 21.7241C39.836 21.3597 39.7003 20.9953 39.568 20.6309C39.429 20.2508 38.7935 20.4267 38.9325 20.81Z" fill="#46A358"/>
<path d="M39.6573 23.9388C39.697 24.1304 39.7401 24.322 39.7798 24.5137C39.8162 24.6802 40.0313 24.7713 40.1901 24.7242C40.3755 24.6707 40.4483 24.5011 40.4119 24.3346C40.3722 24.143 40.3291 23.9514 40.2894 23.7597C40.253 23.5932 40.0379 23.5021 39.8791 23.5492C39.697 23.5995 39.6209 23.7723 39.6573 23.9388Z" fill="#46A358"/>
<path d="M37.8404 23.9735C37.9496 24.2688 38.029 24.5704 38.0654 24.8814C38.0853 25.051 38.2144 25.1924 38.403 25.1893C38.5685 25.1861 38.7472 25.0385 38.7273 24.8688C38.6843 24.5013 38.6049 24.1432 38.4758 23.7945C38.3335 23.4143 37.6981 23.5903 37.8404 23.9735Z" fill="#46A358"/>
<path d="M36.1426 22.72C36.1492 22.965 36.1525 23.21 36.1592 23.4519C36.1691 23.8572 36.831 23.8446 36.8211 23.4394C36.8144 23.1943 36.8111 22.9493 36.8045 22.7074C36.7946 22.3021 36.136 22.3147 36.1426 22.72Z" fill="#46A358"/>
<path d="M36.9402 26.4742C36.9667 26.7883 37.0296 27.0962 37.1388 27.3915C37.2811 27.7716 37.9165 27.5957 37.7742 27.2124C37.6815 26.9674 37.622 26.7192 37.6021 26.4616C37.5723 26.0595 36.9104 26.0721 36.9402 26.4742Z" fill="#46A358"/>
<path d="M38.3898 29.1474C38.4493 29.3391 38.5089 29.5307 38.5685 29.7192C38.6876 30.1056 39.3231 29.9297 39.2039 29.5401C39.1443 29.3485 39.0848 29.16 39.0252 28.9684C38.9061 28.582 38.2706 28.7579 38.3898 29.1474Z" fill="#46A358"/>
<path d="M39.1675 26.7223C39.2072 26.8605 39.2469 26.9987 39.2866 27.1401C39.3992 27.5297 40.0346 27.3506 39.9221 26.9611C39.8824 26.8228 39.8426 26.6846 39.8029 26.5432C39.6904 26.1537 39.055 26.3328 39.1675 26.7223Z" fill="#46A358"/>
<path d="M37.291 31.9465C37.3737 32.2575 37.4532 32.5716 37.5359 32.8826C37.6385 33.2753 38.2739 33.0962 38.1713 32.7036C38.0886 32.3926 38.0092 32.0784 37.9264 31.7674C37.8238 31.3747 37.1884 31.5538 37.291 31.9465Z" fill="#46A358"/>
<path d="M38.9358 36.5206C38.9954 36.6589 39.0517 36.7971 39.1112 36.9353C39.1774 37.0924 39.3396 37.1992 39.5216 37.1458C39.6805 37.1018 39.8096 36.9133 39.7434 36.7563C39.6838 36.618 39.6275 36.4798 39.568 36.3416C39.5018 36.1845 39.3396 36.0777 39.1576 36.1311C38.9987 36.1751 38.8697 36.3636 38.9358 36.5206Z" fill="#46A358"/>
<path d="M60.4808 23.5023C60.3054 23.8384 60.1267 24.1714 59.9513 24.5076C59.7593 24.8688 60.3385 25.1767 60.5304 24.8123C60.7058 24.4762 60.8845 24.1432 61.06 23.807C61.2519 23.4457 60.6727 23.141 60.4808 23.5023Z" fill="#46A358"/>
<path d="M61.4075 24.2908C61.3247 24.6081 61.2387 24.9222 61.1559 25.2395C61.05 25.6322 61.6921 25.7861 61.798 25.3934C61.8807 25.0761 61.9668 24.762 62.0495 24.4447C62.1521 24.0552 61.51 23.9012 61.4075 24.2908Z" fill="#46A358"/>
<path d="M60.5933 27.2941C60.5106 27.558 60.4278 27.8219 60.3418 28.0858C60.2193 28.4753 60.8614 28.6261 60.9838 28.2397C61.0666 27.9758 61.1493 27.7119 61.2354 27.448C61.3545 27.0616 60.7125 26.9077 60.5933 27.2941Z" fill="#46A358"/>
<path d="M60.0373 26.0218C59.9678 26.1443 59.895 26.2699 59.8255 26.3924C59.6203 26.7474 60.1995 27.0553 60.4047 26.6972C60.4742 26.5746 60.547 26.449 60.6165 26.3265C60.8217 25.9746 60.2425 25.6668 60.0373 26.0218Z" fill="#46A358"/>
<path d="M61.6722 26.1724C61.6424 26.4175 61.6126 26.6625 61.5829 26.9075C61.563 27.0772 61.6325 27.2437 61.8211 27.2908C61.9767 27.3285 62.2017 27.2342 62.2249 27.0646C62.2547 26.8196 62.2845 26.5745 62.3143 26.3295C62.3341 26.1599 62.2646 25.9934 62.076 25.9462C61.9171 25.9085 61.6921 26.0028 61.6722 26.1724Z" fill="#46A358"/>
<path d="M58.5547 27.803C58.4885 28.0041 58.3892 28.1863 58.27 28.3622C58.0384 28.7015 58.6175 29.0062 58.8492 28.6669C59.0014 28.447 59.114 28.2082 59.1967 27.9569C59.2497 27.7967 59.1239 27.6145 58.9584 27.5737C58.7731 27.5328 58.6076 27.6396 58.5547 27.803Z" fill="#46A358"/>
<path d="M58.5348 30.5047C58.3925 30.7278 58.323 30.9822 58.3362 31.243C58.3561 31.6451 59.018 31.6357 58.9981 31.2304C58.9915 31.0733 59.0246 30.9445 59.114 30.8126C59.3357 30.4639 58.7565 30.1592 58.5348 30.5047Z" fill="#46A358"/>
<path d="M60.259 29.8136C60.1929 30.0241 60.1267 30.2377 60.0638 30.4482C59.9446 30.8377 60.5867 30.9885 60.7058 30.6021C60.772 30.3916 60.8382 30.178 60.9011 29.9675C61.0202 29.578 60.3782 29.4272 60.259 29.8136Z" fill="#46A358"/>
<path d="M59.713 32.9108C59.6435 33.1401 59.5773 33.3663 59.5078 33.5957C59.392 33.9852 60.034 34.1391 60.1498 33.7496C60.2193 33.5203 60.2855 33.2941 60.355 33.0647C60.4709 32.6783 59.8288 32.5244 59.713 32.9108Z" fill="#46A358"/>
<path d="M61.8112 28.4501C61.7947 28.5915 61.7814 28.7297 61.7649 28.8711C61.745 29.0407 61.9403 29.1821 62.1024 29.1789C62.301 29.1758 62.4069 29.0281 62.4268 28.8585C62.4433 28.7171 62.4566 28.5789 62.4731 28.4376C62.493 28.2679 62.2977 28.1265 62.1355 28.1297C61.937 28.136 61.8311 28.2805 61.8112 28.4501Z" fill="#46A358"/>
<path d="M57.6545 34.7329C57.6214 34.8398 57.585 34.9434 57.5519 35.0502C57.4261 35.4366 58.0681 35.5906 58.1939 35.2042C58.227 35.0974 58.2634 34.9937 58.2965 34.8869C58.4223 34.5005 57.7802 34.3497 57.6545 34.7329Z" fill="#46A358"/>
<path d="M57.1216 37.9406C57.0521 38.1165 56.9793 38.2924 56.9098 38.4683C56.8469 38.6254 56.9893 38.8108 57.1481 38.8516C57.3401 38.8987 57.4857 38.7825 57.5519 38.6254C57.6214 38.4495 57.6942 38.2736 57.7637 38.0977C57.8265 37.9406 57.6842 37.7552 57.5254 37.7144C57.3334 37.6673 57.1878 37.7804 57.1216 37.9406Z" fill="#46A358"/>
<path d="M59.7262 36.6619C59.7295 36.7655 59.7295 36.8723 59.7328 36.976C59.7428 37.3812 60.4047 37.3687 60.3947 36.9634C60.3914 36.8598 60.3914 36.753 60.3881 36.6493C60.3782 36.244 59.7163 36.2566 59.7262 36.6619Z" fill="#46A358"/>
<path d="M58.4918 40.8244C58.4752 40.9658 58.462 41.104 58.4454 41.2453C58.4256 41.415 58.6208 41.5564 58.783 41.5532C58.9816 41.5501 59.0875 41.4024 59.1073 41.2328C59.1239 41.0914 59.1371 40.9532 59.1537 40.8118C59.1735 40.6422 58.9783 40.5008 58.8161 40.504C58.6208 40.5071 58.5116 40.6547 58.4918 40.8244Z" fill="#46A358"/>
<path d="M28.2593 27.7244C28.3156 27.8972 28.3752 28.0731 28.4314 28.2459C28.5572 28.6323 29.1926 28.4533 29.0669 28.0669C29.0106 27.8941 28.951 27.7182 28.8948 27.5454C28.7657 27.159 28.1303 27.3381 28.2593 27.7244Z" fill="#46A358"/>
<path d="M28.9411 27.0113C29.1628 27.272 29.3879 27.5328 29.6096 27.7904C29.7222 27.9223 29.9637 27.894 30.0763 27.7809C30.212 27.6459 30.1789 27.4699 30.0663 27.338C29.8446 27.0772 29.6196 26.8165 29.3978 26.5589C29.2853 26.427 29.0437 26.4552 28.9312 26.5683C28.7955 26.7003 28.8286 26.8793 28.9411 27.0113Z" fill="#46A358"/>
<path d="M30.212 29.2229C30.4039 29.4805 30.5959 29.7381 30.7845 29.9925C31.0294 30.3224 31.5953 29.9957 31.3504 29.6658C31.1585 29.4082 30.9665 29.1506 30.7779 28.8962C30.5297 28.5663 29.9637 28.8899 30.212 29.2229Z" fill="#46A358"/>
<path d="M29.3978 29.9736C29.5501 30.2155 29.7023 30.4574 29.8545 30.6993C30.073 31.0449 30.6389 30.7182 30.4205 30.3726C30.2682 30.1307 30.116 29.8888 29.9637 29.6469C29.742 29.2982 29.1794 29.6249 29.3978 29.9736Z" fill="#46A358"/>
<path d="M30.8805 32.5655C31.0724 32.8922 31.2677 33.2189 31.4596 33.5456C31.6681 33.8974 32.2341 33.5707 32.0256 33.2189C31.8336 32.8922 31.6384 32.5655 31.4464 32.2388C31.2346 31.8869 30.672 32.2136 30.8805 32.5655Z" fill="#46A358"/>
<path d="M31.4663 31.6135C31.5986 31.802 31.731 31.9936 31.8634 32.1821C32.0984 32.5183 32.6643 32.1916 32.4293 31.8554C32.297 31.6669 32.1646 31.4753 32.0322 31.2868C31.7939 30.9507 31.228 31.2742 31.4663 31.6135Z" fill="#46A358"/>
<path d="M31.7741 30.2943C31.8833 30.5173 32.0686 30.6901 32.2903 30.8157C32.661 31.0199 32.982 30.4702 32.6114 30.266C32.479 30.1937 32.3996 30.0963 32.3367 29.9675C32.2606 29.8136 32.0223 29.7822 31.88 29.8639C31.7178 29.9613 31.6979 30.1403 31.7741 30.2943Z" fill="#46A358"/>
<path d="M29.2919 31.9434C29.3349 32.1162 29.3747 32.289 29.4177 32.4649C29.4574 32.6314 29.6659 32.7225 29.8281 32.6754C30.0101 32.6251 30.0895 32.4492 30.0498 32.2858C30.0068 32.1131 29.9671 31.9403 29.924 31.7644C29.8843 31.5979 29.6758 31.5068 29.5137 31.5539C29.3316 31.6041 29.2522 31.7801 29.2919 31.9434Z" fill="#46A358"/>
<path d="M31.3802 35.2261C31.5325 35.5214 31.6847 35.8167 31.8336 36.1089C31.9131 36.2628 32.148 36.2942 32.2903 36.2125C32.4558 36.1183 32.479 35.9329 32.3996 35.779C32.2473 35.4837 32.0951 35.1884 31.9461 34.8963C31.8667 34.7423 31.6317 34.7109 31.4894 34.7926C31.324 34.89 31.3008 35.0753 31.3802 35.2261Z" fill="#46A358"/>
<path d="M33.8524 34.3373C33.9683 34.5446 34.0808 34.752 34.1966 34.9593C34.3952 35.3174 34.9578 34.9876 34.7625 34.6326C34.6467 34.4252 34.5342 34.2179 34.4184 34.0106C34.2165 33.6524 33.6539 33.9792 33.8524 34.3373Z" fill="#46A358"/>
<path d="M34.607 38.8295C34.703 39.0023 34.7989 39.175 34.8982 39.3447C35.1001 39.7028 35.6627 39.3729 35.4642 39.018C35.3682 38.8452 35.2722 38.6724 35.1729 38.5028C34.971 38.1446 34.4051 38.4713 34.607 38.8295Z" fill="#46A358"/>
<path d="M35.7819 37.2368C35.8944 37.4095 36.0102 37.5823 36.1228 37.7551C36.3478 38.0975 36.9137 37.7708 36.6887 37.4284C36.5762 37.2556 36.4603 37.0828 36.3478 36.91C36.1194 36.5676 35.5535 36.8943 35.7819 37.2368Z" fill="#46A358"/>
<path d="M37.0991 42.0809C37.1917 42.2379 37.2877 42.3919 37.3804 42.5489C37.5922 42.9008 38.1548 42.5709 37.9463 42.2222C37.8536 42.0651 37.7577 41.9112 37.665 41.7541C37.4532 41.4023 36.8873 41.729 37.0991 42.0809Z" fill="#46A358"/>
<path d="M26.4259 40.1396C26.6476 40.2401 26.8727 40.3375 27.0944 40.4381C27.4783 40.6108 27.8026 40.0611 27.4154 39.8883C27.1937 39.7878 26.9686 39.6904 26.7469 39.5899C26.3663 39.4202 26.042 39.9668 26.4259 40.1396Z" fill="#46A358"/>
<path d="M28.534 41.0535C28.7789 41.22 29.0238 41.3896 29.2654 41.5561C29.4111 41.6566 29.6361 41.5718 29.7155 41.4336C29.8115 41.2702 29.7321 41.1069 29.5865 41.0064C29.3416 40.8399 29.0967 40.6702 28.8551 40.5037C28.7094 40.4032 28.4844 40.488 28.405 40.6262C28.3123 40.7896 28.3917 40.9529 28.534 41.0535Z" fill="#46A358"/>
<path d="M28.2097 40.0925C28.3785 40.127 28.534 40.1804 28.6863 40.2621C29.0602 40.4569 29.3813 39.9071 29.0073 39.7123C28.8087 39.6087 28.5936 39.5301 28.3719 39.483C27.9582 39.3951 27.7927 40.0045 28.2097 40.0925Z" fill="#46A358"/>
<path d="M30.1491 41.4337C30.298 41.5342 30.4469 41.6379 30.5959 41.7384C30.7415 41.8358 30.9665 41.7541 31.046 41.6159C31.1419 41.4525 31.0625 41.286 30.9169 41.1886C30.768 41.0881 30.619 40.9844 30.4701 40.8839C30.3245 40.7865 30.0994 40.8682 30.02 41.0064C29.9273 41.1698 30.0035 41.3332 30.1491 41.4337Z" fill="#46A358"/>
<path d="M30.1027 42.3732C30.1789 42.4769 30.255 42.5805 30.3311 42.6842C30.5727 43.0141 31.1386 42.6905 30.897 42.3575C30.8209 42.2538 30.7448 42.1501 30.6687 42.0465C30.4271 41.7135 29.8578 42.0402 30.1027 42.3732Z" fill="#46A358"/>
<path d="M31.602 42.8787C31.7509 42.9981 31.8998 43.1175 32.0521 43.2369C32.1877 43.3468 32.3896 43.3562 32.5187 43.2274C32.6378 43.1112 32.6478 42.8913 32.5088 42.7845C32.3598 42.6651 32.2109 42.5457 32.0587 42.4264C31.923 42.3164 31.7211 42.307 31.592 42.4358C31.4729 42.5489 31.463 42.7688 31.602 42.8787Z" fill="#46A358"/>
<path d="M65.7628 33.624C65.4087 33.5612 65.0578 33.5675 64.707 33.6523C64.2933 33.7528 64.482 34.356 64.8957 34.2555C65.1273 34.1989 65.3623 34.1895 65.5973 34.2335C66.0176 34.3089 66.1798 33.6994 65.7628 33.624Z" fill="#46A358"/>
<path d="M63.4792 34.2744C63.3534 34.3655 63.2244 34.4535 63.0986 34.5446C62.9563 34.6451 62.8901 34.821 62.9894 34.9781C63.0754 35.1132 63.3005 35.1854 63.4461 35.0817C63.5719 34.9906 63.7009 34.9027 63.8267 34.8116C63.969 34.711 64.0352 34.5351 63.9359 34.3781C63.8499 34.243 63.6248 34.1739 63.4792 34.2744Z" fill="#46A358"/>
<path d="M63.5851 33.9665C64.012 33.9571 63.9988 33.3288 63.5719 33.3382C63.1449 33.3477 63.1582 33.976 63.5851 33.9665Z" fill="#46A358"/>
</g>
<g clip-path="url(#clip1_5_1760)">
<path d="M30.3859 46.4825C28.0446 52.2577 26.3971 58.2929 25.8568 64.4905C25.3966 69.7879 25.5367 75.5014 28.5582 80.1228C28.9051 80.6525 29.7589 80.1455 29.412 79.6126C26.3804 74.9781 26.3871 69.1639 26.914 63.8698C27.501 57.9711 29.1285 52.2219 31.3564 46.723C31.5898 46.1413 30.6193 45.9073 30.3859 46.4825Z" fill="#727272"/>
<path d="M60.7884 45.5885C66.1145 49.4884 66.1212 56.6383 66.6948 62.5077C66.985 65.4684 67.3852 68.4389 67.5253 71.4126C67.6553 74.1296 67.4219 77.0155 65.2141 78.9395C64.7338 79.3588 65.4575 80.0315 65.9344 79.6155C67.8788 77.9223 68.4791 75.4978 68.5458 73.0376C68.6425 69.5341 68.0322 65.9722 67.692 62.4915C67.095 56.3751 67.0217 48.9457 61.4788 44.8865C60.9718 44.5127 60.2748 45.2115 60.7884 45.5885Z" fill="#727272"/>
<path d="M28.7583 80.3177C31.5832 81.309 34.4713 81.556 37.4429 81.7997C40.7313 82.0694 44.0497 82.4757 47.3547 82.3619C50.7098 82.2482 54.0749 81.7834 57.41 81.4325C60.3282 81.1237 63.223 80.7337 65.9444 79.6027C66.5281 79.359 66.2512 78.4197 65.6576 78.6667C62.8361 79.84 59.8412 80.204 56.8163 80.516C53.668 80.841 50.4997 81.2797 47.3347 81.387C44.2331 81.4942 41.1248 81.127 38.0365 80.8767C34.9582 80.6232 31.9367 80.4022 29.0051 79.3752C28.3982 79.1575 28.158 80.1065 28.7583 80.3177Z" fill="#727272"/>
<path d="M30.626 47.0285C32.9539 47.9548 35.3318 48.7738 37.8431 49.063C40.4545 49.362 43.1158 48.933 45.7439 48.998C47.2013 49.0338 48.512 49.2255 49.9828 49.0208C51.2501 48.842 52.5174 48.595 53.7481 48.2538C56.2994 47.5453 58.7707 46.5573 61.2753 45.7058C61.879 45.5011 61.5988 44.5651 60.9885 44.7698C56.0859 46.437 51.4902 48.3838 46.1975 48.049C43.9963 47.9093 41.8052 48.2245 39.6107 48.205C36.6558 48.1758 33.8143 47.2528 31.1062 46.177C30.5226 45.943 30.029 46.7913 30.626 47.0285Z" fill="#727272"/>
<path d="M0.663676 49.963C6.2666 50.821 11.4793 53.4047 15.3847 57.4314C19.1633 61.3281 21.2878 66.463 25.4099 70.0802C25.8868 70.4995 26.5839 69.7975 26.1036 69.3783C21.7347 65.5433 19.5502 59.9956 15.348 56.0079C11.4126 52.2737 6.3233 49.846 0.910471 49.0173C0.276807 48.9198 0.0266764 49.8655 0.663676 49.963Z" fill="#727272"/>
<path d="M1.53747 48.2177C6.62346 47.0868 12.0296 47.7595 16.5987 50.2522C20.2439 52.2412 23.2355 55.3839 27.5877 55.8129C28.2281 55.8746 28.2014 54.8997 27.5677 54.8379C22.6852 54.3569 19.1633 50.0702 14.761 48.3087C10.4688 46.5928 5.76301 46.2808 1.25399 47.2818C0.623656 47.4215 0.910473 48.3575 1.53747 48.2177Z" fill="#727272"/>
<path d="M0.723709 47.5646C0.340175 48.0781 0.0933795 48.6794 0.00666752 49.3066C-0.0300183 49.5699 0.0867093 49.8266 0.370191 49.8981C0.606981 49.9598 0.940489 49.8071 0.977174 49.5439C1.05388 48.9849 1.25732 48.4941 1.5975 48.0359C1.75758 47.8214 1.61751 47.4931 1.40406 47.3729C1.14726 47.2331 0.880457 47.3534 0.723709 47.5646Z" fill="#727272"/>
<path d="M64.8105 48.4551C66.8783 44.5974 73.4483 44.1001 77.1569 45.8681C81.1757 47.7856 83.03 52.4298 81.3825 56.4922C79.9484 60.0314 76.2631 61.7636 73.2316 63.8046C71.9542 64.6659 70.5335 65.6343 69.6497 66.9051C68.7259 68.2343 68.8459 69.9243 67.9321 71.2503C67.5719 71.7735 68.4491 72.2415 68.8059 71.7248C69.3829 70.8895 69.5496 69.999 69.8064 69.0435C70.17 67.7078 70.897 66.8498 71.9409 65.9756C73.7385 64.4709 75.8463 63.3821 77.7606 62.0334C81.149 59.6447 83.5269 56.2517 82.8966 52.0008C82.3196 48.1301 79.1246 44.9289 75.1792 44.2236C71.2038 43.5119 65.9644 44.1976 63.9334 47.9838C63.6366 48.5363 64.5103 49.0108 64.8105 48.4551Z" fill="#727272"/>
<path d="M65.8244 50.9088C67.2084 48.2179 70.3601 47.5224 73.2216 47.7369C75.1292 47.8799 76.3065 48.6111 77.3037 50.2068C78.4076 51.9683 78.3542 53.46 77.7306 55.3385C76.7501 58.283 74.9825 59.648 72.2644 61.0292C70.4835 61.9327 67.7654 63.1157 67.055 65.1144C66.8449 65.7091 67.8154 65.9431 68.0255 65.3549C68.6725 63.5349 71.8475 62.3519 73.4817 61.5102C74.8991 60.7822 76.2265 59.9795 77.1836 58.6957C78.6977 56.6677 79.9417 53.356 78.8445 50.9543C77.5038 48.0164 75.4527 46.7131 72.1777 46.7359C69.2628 46.7554 66.3246 47.7694 64.9539 50.4343C64.6638 50.9933 65.5376 51.4678 65.8244 50.9088Z" fill="#727272"/>
<path d="M47.308 57.9612C44.3665 58.387 41.8819 60.5189 41.585 63.4991C41.3016 66.3396 43.2693 70.038 46.611 69.8203C49.6593 69.6221 52.3673 66.7426 52.6475 63.8631C52.9576 60.6944 50.5197 57.932 47.208 58.0717C46.5643 58.0977 46.5843 59.0727 47.228 59.0467C50.1328 58.9232 52.1339 61.5102 51.5903 64.2336C51.15 66.4371 48.9689 68.6601 46.591 68.8486C43.6695 69.0793 42.1787 65.4751 42.6423 63.1351C43.0858 60.8927 45.0569 59.2677 47.328 58.9395C47.955 58.8452 47.945 57.867 47.308 57.9612Z" fill="#727272"/>
<path d="M47.8817 58.3869C47.7049 56.3199 51.0366 53.1772 52.7042 55.5692C53.2211 56.3102 53.7214 57.6264 53.5079 58.5396C53.2778 59.5179 52.294 60.2491 51.5402 60.8504C51.0433 61.2469 51.7704 61.9196 52.2606 61.5263C53.4479 60.5806 54.6685 59.4464 54.5552 57.8247C54.4618 56.4987 53.708 54.7502 52.5208 54.0222C49.9861 52.4655 46.6777 56.0307 46.8811 58.4096C46.9345 59.0304 47.935 59.0141 47.8817 58.3869Z" fill="#727272"/>
<path d="M52.5274 61.7442C53.7814 61.0194 57.0264 61.2112 56.6896 63.3041C56.3694 65.2996 53.718 65.3809 52.1472 65.4004C51.5035 65.4069 51.5236 66.3818 52.1672 66.3753C54.3717 66.3493 58.2271 65.6734 57.6768 62.6346C57.2432 60.2492 53.7881 59.8787 52.0038 60.9122C51.4502 61.2339 51.9705 62.0659 52.5274 61.7442Z" fill="#727272"/>
<path d="M51.5202 66.5541C53.2745 67.3081 55.2488 69.5473 53.5813 71.3542C51.6303 73.4667 48.8088 71.377 48.0884 69.3393C47.8783 68.7478 46.9178 69.0208 47.1279 69.6188C48.0618 72.2512 51.4268 74.5262 54.0215 72.2935C56.5428 70.1258 54.5385 66.7913 52.0071 65.6993C51.4235 65.4491 50.9333 66.3006 51.5202 66.5541Z" fill="#727272"/>
<path d="M46.6477 69.583C46.7377 71.221 46.2675 73.6585 44.0063 73.366C42.9791 73.2327 42.1887 72.3325 42.2354 71.312C42.2754 70.3955 42.9391 69.3263 43.3026 68.4878C43.5494 67.9158 42.6789 67.4348 42.4288 68.0133C41.8985 69.2418 40.9781 70.675 41.3182 72.0628C41.595 73.1873 42.5055 74.081 43.6728 74.3052C46.651 74.8805 47.7749 71.8873 47.6482 69.5603C47.6149 68.9363 46.6143 68.9526 46.6477 69.583Z" fill="#727272"/>
<path d="M43.1659 67.2757C41.3016 68.0264 38.4234 67.8347 37.773 65.5565C37.4896 64.5555 37.8064 63.3725 38.7702 62.8298C39.7074 62.3033 40.918 62.443 41.9386 62.5633C42.5689 62.638 42.8224 61.6923 42.1854 61.6175C40.7713 61.4518 39.1671 61.3055 37.9498 62.1895C36.9393 62.924 36.5291 64.211 36.7225 65.3972C37.2228 68.4619 40.9013 69.2322 43.4493 68.2084C44.043 67.9744 43.7628 67.0352 43.1659 67.2757Z" fill="#727272"/>
<path d="M42.5455 61.7279C40.8613 60.8504 39.9809 57.6264 41.4583 56.2322C43.3993 54.4025 45.7839 56.9959 46.9578 58.3999C47.3647 58.8842 48.0517 58.1789 47.6515 57.6979C46.1174 55.865 42.799 53.0602 40.5312 55.7025C38.8636 57.6492 39.8608 61.4354 42.0586 62.5826C42.6256 62.8784 43.1158 62.0269 42.5455 61.7279Z" fill="#727272"/>
<path d="M44.153 68.8942C43.3626 69.6352 42.849 71.6404 44.063 72.2481C45.5171 72.9794 46.1608 70.4931 46.3542 69.5962C46.4409 69.1867 45.7939 69.0274 45.7072 69.4369C45.6205 69.8432 45.5104 70.2429 45.357 70.6329C45.2803 70.8246 45.1969 71.0164 45.0969 71.1984C44.9435 71.4811 44.8534 71.6631 44.4999 71.6241C43.5461 71.5104 44.1997 69.7522 44.6366 69.3459C44.9435 69.0534 44.4632 68.6049 44.153 68.8942Z" fill="#727272"/>
<path d="M48.452 68.9395C48.2819 69.8755 49.3691 70.61 50.1462 70.9447C50.9333 71.2827 52.0305 71.3964 52.7675 70.8667C53.4712 70.3597 53.3612 69.44 53.0577 68.738C52.6441 67.7825 51.7937 67.139 50.8099 66.801C50.403 66.6613 50.2429 67.295 50.6464 67.4315C51.2401 67.6362 51.7737 67.9807 52.1506 68.4812C52.2806 68.6567 52.3807 68.842 52.4641 69.0435C52.6575 69.518 52.6875 69.7325 52.344 70.1452C52.0505 70.4962 51.8971 70.5774 51.4502 70.5807C51.17 70.5807 50.8799 70.5255 50.6164 70.4345C50.2129 70.2947 48.9956 69.6772 49.099 69.1052C49.1723 68.6892 48.5287 68.5267 48.452 68.9395Z" fill="#727272"/>
<path d="M52.3207 64.7341C53.1578 64.9388 53.9915 64.5878 54.6952 64.1556C55.2088 63.8403 55.8858 63.2651 55.8258 62.5989C55.7758 62.0431 55.2088 61.7799 54.7019 61.7214C53.8281 61.6174 52.971 61.9846 52.2606 62.4461C51.9038 62.6769 52.2506 63.2359 52.6075 63.0019C52.9777 62.7581 53.3712 62.5436 53.8081 62.4364C54.2116 62.3356 55.3856 62.1731 55.0287 62.9889C54.7152 63.7136 53.1944 64.2758 52.4841 64.1036C52.0672 64.0028 51.9038 64.6333 52.3207 64.7341Z" fill="#727272"/>
<path d="M49.209 58.6667C49.1557 58.1727 49.2624 57.6819 49.6292 57.3179C49.896 57.0482 50.5431 56.6907 50.9233 56.8987C51.2601 57.0839 51.2368 57.8639 51.2368 58.2247C51.2334 58.7414 51.12 59.2322 50.9433 59.7164C50.7999 60.1096 51.4469 60.2656 51.5903 59.8756C51.8771 59.0892 51.9771 58.2637 51.8404 57.4349C51.747 56.8662 51.647 56.3007 50.99 56.2162C49.5359 56.0244 48.4053 57.3407 48.5487 58.6829C48.5854 59.0924 49.2524 59.0827 49.209 58.6667Z" fill="#727272"/>
<path d="M43.0158 60.8407C42.4989 60.2069 42.0553 59.0564 42.2287 58.2407C42.3321 57.7467 42.4522 57.6037 42.9791 57.5517C43.506 57.4997 43.6361 57.6525 44.0163 57.9514C44.4032 58.2537 44.78 58.5657 45.1636 58.8712C45.4937 59.1344 45.9573 58.6697 45.6238 58.4032C44.6833 57.6492 43.1725 55.9105 41.9752 57.2332C41.0481 58.2602 41.6718 60.2362 42.4455 61.1819C42.709 61.5036 43.2826 61.1689 43.0158 60.8407Z" fill="#727272"/>
<path d="M41.8185 63.3722C40.5178 62.8653 38.8203 63.993 39.0204 65.4165C39.2071 66.7652 41.4383 67.2657 42.4422 66.5052C42.7757 66.2517 42.4322 65.6927 42.0953 65.9495C41.5484 66.3655 40.1876 66.255 39.7874 65.6342C39.2005 64.734 40.6312 63.5997 41.4983 63.941C41.8885 64.0937 42.2154 63.5282 41.8185 63.3722Z" fill="#727272"/>
</g>
<defs>
<clipPath id="clip0_5_1760">
<rect width="44" height="47.0498" fill="white" transform="translate(24 0.76123)"/>
</clipPath>
<clipPath id="clip1_5_1760">
<rect width="83" height="38.408" fill="white" transform="translate(0 43.9702)"/>
</clipPath>
</defs>
</svg>
