<svg width="68" height="85" viewBox="0 0 68 85" fill="none" xmlns="http://www.w3.org/2000/svg">
<g clip-path="url(#clip0_5_1645)">
<path d="M7.24885 39.9547C24.0216 38.2716 40.9382 40.8551 57.6698 38.5272C58.4515 38.4171 58.1182 37.2807 57.3407 37.3908C40.7284 39.6991 23.9064 37.1037 7.24885 38.775C6.46719 38.8536 6.45896 40.0333 7.24885 39.9547Z" fill="#727272"/>
<path d="M7.08428 38.7985C5.44692 39.2861 5.65261 41.3309 6.52066 42.4162C7.9441 44.1936 11.1407 44.233 13.2265 44.0442C14.0122 43.9734 14.0163 42.7937 13.2265 42.8645C11.8771 42.9864 10.4783 42.9746 9.16596 42.605C8.48303 42.4123 7.76309 42.141 7.37226 41.5275C7.17067 41.209 6.78396 40.1237 7.4134 39.9389C8.17037 39.7108 7.84537 38.5705 7.08428 38.7985Z" fill="#727272"/>
<path d="M54.7818 38.8969C55.6498 38.8458 56.4891 38.7042 57.353 38.5941C58.723 38.4172 59.4265 38.7711 59.6651 40.1474C59.8626 41.2917 59.1097 41.6259 58.0483 41.9484C57.5464 42.1017 57.0198 42.1961 56.5014 42.2944C55.115 42.5539 53.7245 42.6837 52.3134 42.7309C51.5235 42.7584 51.5194 43.9381 52.3134 43.9106C54.7201 43.828 61.4794 43.7415 61.2161 40.1041C61.1502 39.1958 60.2328 37.9414 59.373 37.5324C58.0894 36.919 56.09 37.6386 54.7777 37.7172C53.9919 37.7644 53.9878 38.9441 54.7818 38.8969Z" fill="#727272"/>
<path d="M9.05488 43.7926C8.8862 46.2896 5.92414 47.7013 4.3526 49.4157C3.1184 50.7645 2.1475 52.3178 1.44401 53.9732C-0.0699346 57.5202 -0.357913 61.4957 0.411401 65.2353C1.99528 72.9072 8.05929 79.2382 15.6331 81.9554C16.3778 82.2228 16.6987 81.0824 15.9623 80.8189C8.09632 77.9956 1.98294 70.9214 1.30002 62.8091C0.975017 58.9554 1.82661 54.9445 4.07696 51.7004C5.94471 49.0107 10.0546 47.2884 10.2891 43.7926C10.3384 43.0376 9.10425 43.0376 9.05488 43.7926Z" fill="#727272"/>
<path d="M55.8226 43.2892C55.8226 46.3917 58.18 48.3382 60.5784 50.0724C62.6395 51.5588 64.2357 53.0058 65.2519 55.3377C66.1364 57.3628 66.626 59.5492 66.737 61.7394C67.1402 69.7967 62.2446 77.2759 54.7201 80.7953C54.0084 81.1295 54.6296 82.148 55.3413 81.8137C62.331 78.546 67.2595 71.9044 67.9177 64.4645C68.251 60.7013 67.5681 56.5567 65.5687 53.2575C63.3677 49.6201 57.0568 47.9529 57.0527 43.2892C57.0568 42.5302 55.8226 42.5302 55.8226 43.2892Z" fill="#727272"/>
<path d="M15.267 81.0902C14.4689 82.785 15.9005 84.2478 17.6778 84.3265C19.6072 84.4169 21.6436 83.9883 23.5772 83.9096C25.8193 83.8153 28.0615 83.8113 30.3036 83.8428C38.6714 83.9647 47.0351 84.5742 55.3659 83.4889C55.6498 83.4535 55.7938 83.1546 55.8185 82.9187C55.8843 82.2581 55.8267 81.7705 55.6251 81.1492C55.3906 80.4256 54.2017 80.7363 54.4362 81.4637C54.646 81.9396 54.6954 82.4272 54.5843 82.9187C54.7365 82.7299 54.8846 82.5412 55.0368 82.3485C48.5408 83.194 41.9873 82.9816 35.4543 82.785C32.2865 82.6906 29.1146 82.6041 25.9469 82.6552C24.4987 82.6788 23.0506 82.7339 21.6025 82.8283C20.8126 82.8794 20.0268 82.9502 19.2411 83.0249C18.661 83.0799 15.4439 83.5557 16.3284 81.6761C16.6534 80.9958 15.592 80.3981 15.267 81.0902Z" fill="#727272"/>
<path d="M7.08016 49.9859C2.05287 55.8961 1.66205 64.1461 6.17508 70.4377C6.39724 70.7484 6.93205 70.4534 6.7099 70.1389C2.36142 64.0792 2.66174 56.1124 7.52035 50.3988C7.76308 50.1117 7.33111 49.691 7.08016 49.9859Z" fill="#727272"/>
<path d="M7.41339 72.6279C7.81656 73.1863 8.27733 73.7014 8.79158 74.1693C9.07956 74.4289 9.51564 74.016 9.22766 73.7525C8.75044 73.32 8.32258 72.8481 7.9441 72.333C7.72194 72.0223 7.18712 72.3133 7.41339 72.6279Z" fill="#727272"/>
<path d="M10.865 76.0217C11.2641 76.0217 11.2641 75.4319 10.865 75.4319C10.466 75.4319 10.466 76.0217 10.865 76.0217Z" fill="#727272"/>
<path d="M54.6296 43.3207C54.3128 44.4532 54.0413 45.5936 54.5062 46.7261C54.9381 47.776 55.8144 48.7237 56.559 49.5927C58.3445 51.669 61.9977 53.7649 62.1705 56.659C62.1911 57.0365 62.8082 57.0405 62.7876 56.659C62.6601 54.4924 60.9898 53.1043 59.4512 51.6965C58.4597 50.7881 57.5258 49.8247 56.6701 48.7945C56.0942 48.0985 55.4442 47.3631 55.1109 46.5256C54.7036 45.5071 54.9381 44.5044 55.222 43.482C55.3248 43.1123 54.7283 42.955 54.6296 43.3207Z" fill="#727272"/>
<path d="M62.4379 58.0275C62.5243 58.7825 62.6107 59.5375 62.6971 60.2925C62.7382 60.6661 63.3594 60.67 63.3142 60.2925C63.2278 59.5375 63.1414 58.7825 63.055 58.0275C63.0139 57.6539 62.3968 57.65 62.4379 58.0275Z" fill="#727272"/>
<path d="M62.4955 61.8459C62.5408 62.0661 62.5037 62.2745 62.4174 62.4789C62.3556 62.6284 62.4873 62.8014 62.6313 62.8407C62.8082 62.8879 62.9481 62.7817 63.0098 62.6362C63.1373 62.3295 63.1538 62.011 63.0879 61.6886C63.018 61.3189 62.4215 61.4762 62.4955 61.8459Z" fill="#727272"/>
<path d="M35.7423 57.5319C37.2151 54.858 39.9879 53.1081 43.2091 53.2614C47.0434 53.4423 51.0751 56.6314 48.3887 60.3985C46.813 62.6046 43.9826 64.032 41.8968 65.77C39.5806 67.7008 37.4619 69.8282 35.5078 72.101C35.0059 72.683 35.8739 73.5206 36.3799 72.9347C39.3585 69.4703 42.7278 66.5408 46.4304 63.8039C48.9029 61.9715 51.6387 59.1913 50.1371 55.9708C48.8947 53.3047 45.4636 51.9953 42.5715 52.0739C39.1651 52.1683 36.2442 54.0872 34.6726 56.9342C34.3065 57.6066 35.372 58.2043 35.7423 57.5319Z" fill="#727272"/>
<path d="M35.4502 56.6157C32.8131 53.7806 29.5219 50.8589 25.2516 51.0712C22.0839 51.2285 19.3563 53.525 18.8996 56.5489C18.336 60.2334 21.2158 63.4658 24.0216 65.601C27.4691 68.2238 32.6691 69.1322 35.2486 72.687C35.697 73.3083 36.7667 72.7184 36.3141 72.0932C34.7056 69.8754 32.3647 68.735 29.8799 67.5868C26.7203 66.1279 23.606 64.323 21.5737 61.5075C19.3069 58.3735 19.6813 53.58 24.075 52.4318C28.3741 51.3111 31.9944 54.6771 34.5739 57.4494C35.1046 58.0196 35.9768 57.182 35.4502 56.6157Z" fill="#727272"/>
</g>
<g clip-path="url(#clip1_5_1645)">
<path d="M31.4719 12.9274C30.283 14.9948 28.4688 16.651 26.1404 17.5085C25.2313 17.8453 24.0342 17.8257 24.1535 16.6315C24.2275 15.8875 25.0667 15.2415 25.6756 14.893C26.7123 14.2978 28.041 14.1021 29.1558 13.64C29.8799 13.3385 29.2546 12.3244 28.5347 12.6259C26.5436 13.4521 24.3633 13.6479 23.232 15.6526C22.6273 16.7254 22.4298 18.2172 23.7915 18.8281C25.2683 19.4898 27.3005 18.4209 28.5264 17.6691C30.2295 16.6276 31.5665 15.2062 32.5332 13.5187C32.9199 12.8569 31.8545 12.2618 31.4719 12.9274Z" fill="#46A358"/>
<path d="M28.8967 12.4379C27.3992 12.5945 25.9142 12.6023 24.4291 12.3361C23.8861 12.2382 23.3472 12.1051 22.8206 11.9445C22.3763 11.8192 21.9485 11.6665 21.5248 11.4825C20.8954 10.7229 20.9571 10.3 21.7181 10.2061C23.9478 8.56939 27.4321 10.2883 29.6207 11.0831C30.3653 11.3533 30.6861 10.2178 29.9498 9.95156C28.0451 9.25851 25.9553 8.21699 23.8614 8.44018C22.6602 8.56547 19.8916 9.06274 19.5707 10.4997C18.8302 13.8279 27.1072 13.8044 28.8967 13.6165C29.6783 13.5303 29.6865 12.3557 28.8967 12.4379Z" fill="#46A358"/>
<path d="M30.353 9.97113C28.4812 8.55764 26.8192 6.35714 26.9097 3.9726C26.9509 2.9115 27.6584 2.46122 28.6828 2.93891C29.2463 3.20125 29.6372 3.8708 29.9457 4.3759C30.6615 5.55838 30.9618 6.90922 31.2251 8.23657C31.3732 8.9766 32.5621 8.66336 32.414 7.92333C32.019 5.94209 31.4554 3.87863 29.9169 2.39857C29.0078 1.52542 27.4939 0.523052 26.4243 1.6977C23.9231 4.44246 27.1977 9.07449 29.4808 10.8012C30.0979 11.2672 30.9782 10.441 30.353 9.97113Z" fill="#46A358"/>
<path d="M32.3852 8.24842C32.6567 6.36115 33.5206 2.77064 35.7996 2.15983C37.9182 1.596 37.7084 4.83802 37.116 5.91087C36.5195 6.99154 35.3471 8.00565 34.4955 8.91013C33.969 9.47005 34.837 10.304 35.3676 9.74022C36.5894 8.44027 38.416 6.94847 38.6792 5.11994C38.8849 3.70253 38.7738 1.56076 37.1325 0.934277C35.635 0.362615 34.1541 1.66256 33.3025 2.6845C32.0478 4.18805 31.4637 6.05182 31.1922 7.92735C31.0852 8.6752 32.2741 8.99627 32.3852 8.24842Z" fill="#46A358"/>
<path d="M35.454 9.88921C36.8897 8.74588 39.5554 7.95104 41.3079 8.98081C43.5787 10.3199 40.3617 11.1226 39.3004 11.1892C38.165 11.2635 37.0296 11.197 35.9024 11.0717C35.1167 10.9855 35.1208 12.1602 35.9024 12.2463C37.7454 12.4499 40.2342 12.7123 41.9497 11.843C43.0151 11.3027 43.7803 9.99493 43.1262 8.89467C42.3939 7.66129 40.3329 7.36372 38.996 7.39896C37.3381 7.44594 35.8448 8.05676 34.586 9.05912C33.973 9.54464 34.8493 10.3747 35.454 9.88921Z" fill="#46A358"/>
<path d="M35.5857 12.2069C36.8568 12.6533 38.1198 13.3268 38.8438 14.4622C39.7488 15.8875 39.7694 18.5109 37.1366 18.0214C34.8205 17.5907 33.1462 15.2493 32.6731 13.2171C32.5003 12.481 31.3115 12.7903 31.4842 13.5304C31.9038 15.3393 32.9529 16.9368 34.5243 18.0449C35.7585 18.9181 37.9264 19.9596 39.3786 18.969C40.8719 17.9509 40.8719 15.8444 40.1972 14.3957C39.3991 12.6885 37.7002 11.6979 35.923 11.0714C35.1661 10.813 34.8452 11.9485 35.5857 12.2069Z" fill="#46A358"/>
<path d="M23.1045 15.4411C19.5008 17.5085 16.8433 19.8108 16.2139 23.9534C15.5269 28.4523 16.6253 33.1548 17.629 37.5362C17.7977 38.2762 18.9866 37.963 18.8179 37.223C17.9293 33.3466 17.0202 29.3293 17.2958 25.3395C17.5961 20.9893 19.9657 18.6126 23.7215 16.4591C24.4044 16.0676 23.7874 15.0495 23.1045 15.4411Z" fill="#46A358"/>
<path d="M39.0083 14.1138C44.0477 14.4897 47.6143 18.3425 48.9678 22.7553C50.4405 27.5596 49.6178 32.6184 48.8156 37.4579C48.6922 38.198 49.881 38.5151 50.0045 37.7712C50.9424 32.0937 51.8844 26.0639 49.4614 20.59C47.6267 16.4435 43.8173 13.2994 39.0083 12.9391C38.2144 12.8804 38.2185 14.0551 39.0083 14.1138Z" fill="#46A358"/>
<path d="M24.3263 17.8766C18.2996 22.0505 20.2536 31.4869 21.4713 37.3523C21.6235 38.0923 22.8165 37.7791 22.6602 37.039C22.0225 33.9693 21.4302 30.8643 21.4919 27.7241C21.5536 24.67 22.1583 20.8211 24.9474 18.8907C25.5851 18.4483 24.9721 17.4302 24.3263 17.8766Z" fill="#46A358"/>
<path d="M31.0934 14.0786C28.8514 17.3637 27.4034 21.0364 26.8768 24.9284C26.6012 26.9683 26.5806 29.0357 26.8357 31.0796C27.1113 33.3114 27.8641 35.4571 28.1438 37.689C28.2343 38.429 29.4726 38.4407 29.378 37.689C28.8926 33.7931 27.642 30.2065 27.9711 26.2205C28.3125 22.0818 29.7935 18.1428 32.163 14.6698C32.5908 14.0355 31.5254 13.4482 31.0934 14.0786Z" fill="#46A358"/>
<path d="M34.1088 17.7082C35.9477 20.5978 36.3344 23.8672 36.6552 27.168C36.9885 30.6019 37.26 34.0397 37.4903 37.4814C37.5397 38.2332 38.7738 38.2371 38.7245 37.4814C38.4653 33.5855 38.1732 29.6896 37.7536 25.8054C37.4245 22.7552 36.8692 19.7677 35.1743 17.113C34.7629 16.4709 33.6933 17.0582 34.1088 17.7082Z" fill="#46A358"/>
<path d="M39.7241 18.2565C44.3192 23.7577 44.4714 30.7821 44.3069 37.4854C44.2904 38.2411 45.5245 38.2411 45.541 37.4854C45.7138 30.4141 45.4176 23.2017 40.5962 17.4264C40.1026 16.8351 39.2346 17.6731 39.7241 18.2565Z" fill="#46A358"/>
<path d="M31.9532 19.6895C31.8833 19.9518 31.8174 20.2102 31.7475 20.4726C31.6529 20.8406 32.2453 20.9973 32.344 20.6292C32.4139 20.3669 32.4798 20.1084 32.5497 19.8461C32.6443 19.482 32.0519 19.3253 31.9532 19.6895Z" fill="#46A358"/>
<path d="M33.286 21.7294C33.286 22.0231 33.286 22.3168 33.286 22.6104C33.286 22.9902 33.9031 22.9902 33.9031 22.6104C33.9031 22.3168 33.9031 22.0231 33.9031 21.7294C33.9031 21.3496 33.286 21.3496 33.286 21.7294Z" fill="#46A358"/>
<path d="M30.3077 23.5893C30.2748 24.0122 30.2378 24.439 30.2049 24.8618C30.1761 25.2377 30.7931 25.2377 30.8219 24.8618C30.8548 24.439 30.8919 24.0122 30.9248 23.5893C30.9536 23.2134 30.3365 23.2134 30.3077 23.5893Z" fill="#46A358"/>
<path d="M34.3145 25.6447C34.3145 26.0363 34.3145 26.4278 34.3145 26.8194C34.3145 27.1992 34.9316 27.1992 34.9316 26.8194C34.9316 26.4278 34.9316 26.0363 34.9316 25.6447C34.9316 25.2649 34.3145 25.2649 34.3145 25.6447Z" fill="#46A358"/>
<path d="M31.9491 27.7983C31.9491 28.2212 31.9491 28.6479 31.9491 29.0708C31.9491 29.4506 32.5662 29.4506 32.5662 29.0708C32.5662 28.6479 32.5662 28.2212 32.5662 27.7983C32.5662 27.4185 31.9491 27.4185 31.9491 27.7983Z" fill="#46A358"/>
<path d="M30.6121 32.1054C30.6121 32.6927 30.6121 33.2801 30.6121 33.8674C30.6121 34.2472 31.2292 34.2472 31.2292 33.8674C31.2292 33.2801 31.2292 32.6927 31.2292 32.1054C31.2292 31.7256 30.6121 31.7256 30.6121 32.1054Z" fill="#46A358"/>
<path d="M28.7815 28.2644C28.8514 28.656 28.9255 29.0475 28.9954 29.4391C29.0612 29.8111 29.6577 29.6544 29.5919 29.2825C29.522 28.8909 29.4479 28.4994 29.378 28.1078C29.308 27.7398 28.7115 27.8964 28.7815 28.2644Z" fill="#46A358"/>
<path d="M33.5 34.0632C33.5329 34.4547 33.5699 34.8463 33.6028 35.2378C33.6357 35.6137 34.2528 35.6137 34.2199 35.2378C34.187 34.8463 34.15 34.4547 34.117 34.0632C34.0841 33.6873 33.4629 33.6834 33.5 34.0632Z" fill="#46A358"/>
<path d="M35.3471 29.6584C35.38 30.0499 35.417 30.4415 35.4499 30.833C35.4828 31.205 36.0999 31.2089 36.067 30.833C36.0341 30.4415 35.997 30.0499 35.9641 29.6584C35.9312 29.2825 35.3142 29.2786 35.3471 29.6584Z" fill="#46A358"/>
<path d="M42.431 16.5494C42.9082 16.9449 43.3854 17.3403 43.8626 17.7319C44.1629 17.9786 44.5989 17.5635 44.2986 17.3168C43.8214 16.9214 43.3442 16.5259 42.867 16.1344C42.5708 15.8877 42.1307 16.2988 42.431 16.5494Z" fill="#46A358"/>
<path d="M42.6902 19.8188C42.9576 20.2769 43.2291 20.7389 43.4965 21.197C43.6898 21.5259 44.2246 21.2322 44.0312 20.8994C43.7638 20.4413 43.4923 19.9793 43.2249 19.5212C43.0275 19.1923 42.4968 19.4899 42.6902 19.8188Z" fill="#46A358"/>
<path d="M45.1625 20.0104C45.467 20.4059 45.7714 20.8013 46.0758 21.1929C46.3062 21.4944 46.8451 21.2007 46.6106 20.8953C46.3062 20.4998 46.0017 20.1044 45.6973 19.7128C45.4628 19.4153 44.928 19.705 45.1625 20.0104Z" fill="#46A358"/>
<path d="M46.6846 25.1321C46.7875 25.8173 46.8944 26.5025 46.9973 27.1877C47.0549 27.5597 47.6473 27.4031 47.5938 27.0311C47.4909 26.3459 47.384 25.6607 47.2811 24.9755C47.2194 24.6035 46.627 24.764 46.6846 25.1321Z" fill="#46A358"/>
<path d="M44.6113 23.3739C44.7141 23.6989 44.817 24.0278 44.9198 24.3528C45.035 24.713 45.6274 24.5603 45.5163 24.1962C45.4135 23.8712 45.3106 23.5423 45.2078 23.2173C45.0926 22.8571 44.4961 23.0098 44.6113 23.3739Z" fill="#46A358"/>
<path d="M47.8817 30.735C47.927 31.201 47.9188 31.6669 47.8406 32.129C47.7789 32.497 48.3713 32.6575 48.4371 32.2856C48.5235 31.7687 48.5523 31.2558 48.5029 30.735C48.4618 30.3631 47.8447 30.3592 47.8817 30.735Z" fill="#46A358"/>
<path d="M46.4501 32.5949C46.4501 32.9551 46.4501 33.3114 46.4501 33.6717C46.4501 34.0515 47.0672 34.0515 47.0672 33.6717C47.0672 33.3114 47.0672 32.9551 47.0672 32.5949C47.0672 32.2151 46.4501 32.2151 46.4501 32.5949Z" fill="#46A358"/>
<path d="M47.0878 22.7827C47.2565 23.1742 47.4292 23.5658 47.5979 23.9573C47.6637 24.1061 47.8036 24.2079 47.9764 24.1609C48.1204 24.1257 48.2561 23.9456 48.1903 23.8007C48.0216 23.4092 47.8488 23.0176 47.6802 22.6261C47.6144 22.4773 47.4745 22.3755 47.3017 22.4225C47.1577 22.4577 47.0261 22.6378 47.0878 22.7827Z" fill="#46A358"/>
<path d="M45.9359 29.5602C45.9359 29.7873 45.9359 30.0184 45.9359 30.2455C45.9359 30.6253 46.553 30.6253 46.553 30.2455C46.553 30.0184 46.553 29.7873 46.553 29.5602C46.553 29.1804 45.9359 29.1804 45.9359 29.5602Z" fill="#46A358"/>
<path d="M47.1701 36.1188C47.1536 36.3968 47.0837 36.6631 46.9767 36.9215C46.915 37.0703 47.0466 37.2426 47.1906 37.2817C47.3675 37.3287 47.5074 37.223 47.5691 37.0781C47.7007 36.7688 47.7666 36.4517 47.7871 36.1188C47.8118 35.739 47.1947 35.7429 47.1701 36.1188Z" fill="#46A358"/>
<path d="M21.2903 18.9338C21.0805 19.2236 20.8707 19.5133 20.6567 19.8031C20.4305 20.1163 20.9653 20.41 21.1915 20.1006C21.4013 19.8109 21.6111 19.5212 21.8251 19.2314C22.0472 18.9182 21.5124 18.6245 21.2903 18.9338Z" fill="#46A358"/>
<path d="M19.5296 23.2172C19.4514 23.5735 19.3774 23.9298 19.2992 24.29C19.2211 24.6581 19.8135 24.8186 19.8957 24.4467C19.9739 24.0904 20.0479 23.734 20.1261 23.3738C20.2043 23.0058 19.6078 22.8491 19.5296 23.2172Z" fill="#46A358"/>
<path d="M19.3321 21.0832C19.0071 21.4943 18.7644 21.9485 18.5999 22.4379C18.4765 22.7982 19.073 22.9509 19.1964 22.5946C19.3486 22.1521 19.5748 21.7527 19.8669 21.3808C20.1055 21.0754 19.5666 20.7856 19.3321 21.0832Z" fill="#46A358"/>
<path d="M18.0774 24.9793C18.0034 25.4687 17.9252 25.9542 17.8512 26.4437C17.7936 26.8117 18.3901 26.9723 18.4477 26.6003C18.5217 26.1109 18.5999 25.6253 18.6739 25.1359C18.7315 24.7639 18.135 24.6034 18.0774 24.9793Z" fill="#46A358"/>
<path d="M18.6945 27.7983C18.641 28.2877 18.6739 28.7693 18.7727 29.2509C18.8467 29.6229 19.4432 29.4663 19.3692 29.0943C19.2828 28.6636 19.2663 28.2329 19.3157 27.7983C19.3486 27.4224 18.7315 27.4263 18.6945 27.7983Z" fill="#46A358"/>
<path d="M19.2005 31.5183C19.2334 31.8119 19.2704 32.1056 19.3033 32.3993C19.3198 32.5559 19.4309 32.6929 19.6119 32.6929C19.7641 32.6929 19.941 32.5598 19.9204 32.3993C19.8875 32.1056 19.8505 31.8119 19.8176 31.5183C19.8011 31.3617 19.69 31.2246 19.509 31.2246C19.3568 31.2246 19.184 31.3577 19.2005 31.5183Z" fill="#46A358"/>
<path d="M18.2008 33.7266C18.4394 34.0986 18.6122 34.4901 18.7192 34.9169C18.8138 35.285 19.4062 35.1284 19.3157 34.7603C19.1964 34.2904 18.9989 33.8441 18.7356 33.429C18.5258 33.108 17.9952 33.4055 18.2008 33.7266Z" fill="#46A358"/>
<path d="M19.5173 36.1972C19.5872 36.3617 19.653 36.5222 19.7229 36.6866C19.7846 36.8315 19.9286 36.9372 20.1014 36.8902C20.2495 36.8511 20.3811 36.6788 20.3153 36.53C20.2454 36.3656 20.1796 36.205 20.1096 36.0406C20.0479 35.8957 19.9039 35.79 19.7312 35.837C19.5872 35.8722 19.4555 36.0484 19.5173 36.1972Z" fill="#46A358"/>
</g>
<defs>
<clipPath id="clip0_5_1645">
<rect width="68" height="47.0498" fill="white" transform="translate(0 37.2886)"/>
</clipPath>
<clipPath id="clip1_5_1645">
<rect width="35" height="37.4478" fill="white" transform="translate(16 0.801025)"/>
</clipPath>
</defs>
</svg>
